HIERARCHY
ROOT Hips
{
  OFFSET 12.5924 87.7646 8.5502
  CHANNELS 6 Xposition Yposition Zposition Zrotation Xrotation Yrotation
  JOINT RightUpLeg
  {
    OFFSET -9.27424 -1.51647 -0.00177081
    CHANNELS 3 Zrotation Xrotation Yrotation
    JOINT RightLeg
    {
      OFFSET -0.0218595 -41.9179 0.0996455
      CHANNELS 3 Zrotation Xrotation Yrotation
      JOINT RightFoot
      {
        OFFSET -0.864559 -41.9626 -0.357059
        CHANNELS 3 Zrotation Xrotation Yrotation
        End Site
        {
          OFFSET 0 -7.69 17.5
        }
      }
    }
  }
  JOINT LeftUpLeg
  {
    OFFSET 9.25718 -1.5867 0.052377
    CHANNELS 3 Zrotation Xrotation Yrotation
    JOINT LeftLeg
    {
      OFFSET 0.0916619 -41.8676 0.000817906
      CHANNELS 3 Zrotation Xrotation Yrotation
      JOINT LeftFoot
      {
        OFFSET -0.467602 -41.8546 0.208385
        CHANNELS 3 Zrotation Xrotation Yrotation
        End Site
        {
          OFFSET 0 -7.69 17.5
        }
      }
    }
  }
  JOINT Spine
  {
    OFFSET 0.0181296 14.2981 0.0454815
    CHANNELS 3 Zrotation Xrotation Yrotation
    JOINT Spine1
    {
      OFFSET 0.0179205 9.71532 0.0144816
      CHANNELS 3 Zrotation Xrotation Yrotation
      JOINT Spine2
      {
        OFFSET 0.0460832 10.1118 -0.00781291
        CHANNELS 3 Zrotation Xrotation Yrotation
        JOINT Spine3
        {
          OFFSET 0.0326005 9.72657 -0.000132442
          CHANNELS 3 Zrotation Xrotation Yrotation
          JOINT Neck
          {
            OFFSET -0.0594321 10.3688 0.0892585
            CHANNELS 3 Zrotation Xrotation Yrotation
            JOINT Head
            {
              OFFSET -0.027184 9.52116 0.11923
              CHANNELS 3 Zrotation Xrotation Yrotation
              End Site
              {
                OFFSET 0 15.95 0
              }
            }
          }
          JOINT RightShoulder
          {
            OFFSET -3.18249 6.94712 0.0315742
            CHANNELS 3 Zrotation Xrotation Yrotation
            JOINT RightArm
            {
              OFFSET -12.6859 -0.0281953 -0.0223312
              CHANNELS 3 Zrotation Xrotation Yrotation
              JOINT RightForeArm
              {
                OFFSET -26.4349 -0.138904 0.103809
                CHANNELS 3 Zrotation Xrotation Yrotation
                JOINT RightHand
                {
                  OFFSET -26.0404 -0.036643 0.02476
                  CHANNELS 3 Zrotation Xrotation Yrotation
                  JOINT RightHandThumb1
                  {
                    OFFSET -2.48905 0.190105 3.12053
                    CHANNELS 3 Zrotation Xrotation Yrotation
                    JOINT RightHandThumb2
                    {
                      OFFSET -3.68274 0 0
                      CHANNELS 3 Zrotation Xrotation Yrotation
                      JOINT RightHandThumb3
                      {
                        OFFSET -2.55832 0 0
                        CHANNELS 3 Zrotation Xrotation Yrotation
                        End Site
                        {
                          OFFSET -2.194 0 0
                        }
                      }
                    }
                  }
                  JOINT RightInHandIndex
                  {
                    OFFSET -3.22368 0.508421 1.97842
                    CHANNELS 3 Zrotation Xrotation Yrotation
                    JOINT RightHandIndex1
                    {
                      OFFSET -5.21684 -0.091368 0.999158
                      CHANNELS 3 Zrotation Xrotation Yrotation
                      JOINT RightHandIndex2
                      {
                        OFFSET -3.61937 0 0
                        CHANNELS 3 Zrotation Xrotation Yrotation
                        JOINT RightHandIndex3
                        {
                          OFFSET -2.0521 0 0
                          CHANNELS 3 Zrotation Xrotation Yrotation
                          End Site
                          {
                            OFFSET -1.805 0 0
                          }
                        }
                      }
                    }
                  }
                  JOINT RightInHandMiddle
                  {
                    OFFSET -3.38211 0.517263 0.756737
                    CHANNELS 3 Zrotation Xrotation Yrotation
                    JOINT RightHandMiddle1
                    {
                      OFFSET -5.17411 -0.084 0.313895
                      CHANNELS 3 Zrotation Xrotation Yrotation
                      JOINT RightHandMiddle2
                      {
                        OFFSET -3.94947 0 0
                        CHANNELS 3 Zrotation Xrotation Yrotation
                        JOINT RightHandMiddle3
                        {
                          OFFSET -2.47579 0 0
                          CHANNELS 3 Zrotation Xrotation Yrotation
                          End Site
                          {
                            OFFSET -1.975 0 0
                          }
                        }
                      }
                    }
                  }
                  JOINT RightInHandRing
                  {
                    OFFSET -3.36516 0.537895 -0.128947
                    CHANNELS 3 Zrotation Xrotation Yrotation
                    JOINT RightHandRing1
                    {
                      OFFSET -4.63474 -0.022105 -0.478947
                      CHANNELS 3 Zrotation Xrotation Yrotation
                      JOINT RightHandRing2
                      {
                        OFFSET -3.44238 0 0
                        CHANNELS 3 Zrotation Xrotation Yrotation
                        JOINT RightHandRing3
                        {
                          OFFSET -2.3881 0 0
                          CHANNELS 3 Zrotation Xrotation Yrotation
                          End Site
                          {
                            OFFSET -1.857 0 0
                          }
                        }
                      }
                    }
                  }
                  JOINT RightInHandPinky
                  {
                    OFFSET -3.16105 0.469368 -1.20179
                    CHANNELS 3 Zrotation Xrotation Yrotation
                    JOINT RightHandPinky1
                    {
                      OFFSET -4.14105 -0.022105 -1.09053
                      CHANNELS 3 Zrotation Xrotation Yrotation
                      JOINT RightHandPinky2
                      {
                        OFFSET -2.75653 0 0
                        CHANNELS 3 Zrotation Xrotation Yrotation
                        JOINT RightHandPinky3
                        {
                          OFFSET -1.74189 0 0
                          CHANNELS 3 Zrotation Xrotation Yrotation
                          End Site
                          {
                            OFFSET -1.645 0 0
                          }
                        }
                      }
                    }
                  }
                }
              }
            }
          }
          JOINT LeftShoulder
          {
            OFFSET 3.21289 6.91298 -0.0113859
            CHANNELS 3 Zrotation Xrotation Yrotation
            JOINT LeftArm
            {
              OFFSET 12.7691 -0.0256594 -0.0399854
              CHANNELS 3 Zrotation Xrotation Yrotation
              JOINT LeftForeArm
              {
                OFFSET 26.4177 -0.0137926 -0.00219879
                CHANNELS 3 Zrotation Xrotation Yrotation
                JOINT LeftHand
                {
                  OFFSET 26.0013 -0.0633708 -0.0119906
                  CHANNELS 3 Zrotation Xrotation Yrotation
                  JOINT LeftHandThumb1
                  {
                    OFFSET 2.48905 0.190105 3.12053
                    CHANNELS 3 Zrotation Xrotation Yrotation
                    JOINT LeftHandThumb2
                    {
                      OFFSET 3.68274 0 0
                      CHANNELS 3 Zrotation Xrotation Yrotation
                      JOINT LeftHandThumb3
                      {
                        OFFSET 2.55832 0 0
                        CHANNELS 3 Zrotation Xrotation Yrotation
                        End Site
                        {
                          OFFSET 2.194 0 0
                        }
                      }
                    }
                  }
                  JOINT LeftInHandIndex
                  {
                    OFFSET 3.22368 0.508421 1.97842
                    CHANNELS 3 Zrotation Xrotation Yrotation
                    JOINT LeftHandIndex1
                    {
                      OFFSET 5.21684 -0.091368 0.999158
                      CHANNELS 3 Zrotation Xrotation Yrotation
                      JOINT LeftHandIndex2
                      {
                        OFFSET 3.61937 0 0
                        CHANNELS 3 Zrotation Xrotation Yrotation
                        JOINT LeftHandIndex3
                        {
                          OFFSET 2.0521 0 0
                          CHANNELS 3 Zrotation Xrotation Yrotation
                          End Site
                          {
                            OFFSET 1.805 0 0
                          }
                        }
                      }
                    }
                  }
                  JOINT LeftInHandMiddle
                  {
                    OFFSET 3.38211 0.517263 0.756737
                    CHANNELS 3 Zrotation Xrotation Yrotation
                    JOINT LeftHandMiddle1
                    {
                      OFFSET 5.17411 -0.084 0.313895
                      CHANNELS 3 Zrotation Xrotation Yrotation
                      JOINT LeftHandMiddle2
                      {
                        OFFSET 3.94947 0 0
                        CHANNELS 3 Zrotation Xrotation Yrotation
                        JOINT LeftHandMiddle3
                        {
                          OFFSET 2.47579 0 0
                          CHANNELS 3 Zrotation Xrotation Yrotation
                          End Site
                          {
                            OFFSET 1.975 0 0
                          }
                        }
                      }
                    }
                  }
                  JOINT LeftInHandRing
                  {
                    OFFSET 3.36516 0.537895 -0.128947
                    CHANNELS 3 Zrotation Xrotation Yrotation
                    JOINT LeftHandRing1
                    {
                      OFFSET 4.63474 -0.022105 -0.478947
                      CHANNELS 3 Zrotation Xrotation Yrotation
                      JOINT LeftHandRing2
                      {
                        OFFSET 3.44238 0 0
                        CHANNELS 3 Zrotation Xrotation Yrotation
                        JOINT LeftHandRing3
                        {
                          OFFSET 2.3881 0 0
                          CHANNELS 3 Zrotation Xrotation Yrotation
                          End Site
                          {
                            OFFSET 1.857 0 0
                          }
                        }
                      }
                    }
                  }
                  JOINT LeftInHandPinky
                  {
                    OFFSET 3.16105 0.469368 -1.20179
                    CHANNELS 3 Zrotation Xrotation Yrotation
                    JOINT LeftHandPinky1
                    {
                      OFFSET 4.14105 -0.022105 -1.09053
                      CHANNELS 3 Zrotation Xrotation Yrotation
                      JOINT LeftHandPinky2
                      {
                        OFFSET 2.75653 0 0
                        CHANNELS 3 Zrotation Xrotation Yrotation
                        JOINT LeftHandPinky3
                        {
                          OFFSET 1.74189 0 0
                          CHANNELS 3 Zrotation Xrotation Yrotation
                          End Site
                          {
                            OFFSET 1.645 0 0
                          }
                        }
                      }
                    }
                  }
                }
              }
            }
          }
        }
      }
    }
  }
}
MOTION
Frames: 3
Frame Time: 0.00833333
1.514184400000000096e+03 8.768049999999999500e+01 4.198339999999999073e+00 2.542099999999999937e+01 -1.624360000000000070e+01 -1.574180000000000064e+02 3.717450000000000898e+01 -4.876310000000000144e+01 4.828569999999999851e+01 -2.162859999999999783e+00 2.878170000000000073e+01 -3.305039999999999978e+00 5.685060000000000002e+00 -1.368859999999999966e+00 3.541839999999999833e+01 4.966550000000000153e+01 -3.686919999999999931e+01 3.435439999999999827e+01 -9.857949999999998880e+00 4.171249999999999147e+01 1.910320000000000817e+01 -1.276949999999999896e+01 -1.259980000000000189e+01 9.052080000000000126e+00 1.072089999999999987e+00 8.336349999999999483e+00 -3.089780000000000015e+01 -1.126920000000000144e-01 2.098460000000000214e+00 -8.110960000000000392e+00 -4.373459999999999848e-02 3.364949999999999886e+00 -1.237389999999999901e+01 -9.194959999999999800e-01 -6.060250000000000359e-01 2.580839999999999801e+00 -5.427360000000000184e+00 -3.682160000000000100e+00 3.699420000000000641e+01 -1.458510000000000062e+01 1.836610000000000298e+00 2.571849999999999881e+01 4.036310000000000286e+00 -3.125659999999999883e+00 -5.139550000000000729e+00 5.982800000000000296e+01 -2.330849999999999511e+01 -1.055840000000000245e+01 6.279369999999999408e+01 -1.190450000000000053e+01 1.148839999999999861e+02 -2.046330000000000027e+01 -1.408830000000000027e+00 4.284319999999999240e+00 2.818400000000000105e+01 1.072940000000000005e+01 1.915919999999999845e+01 9.128040000000000705e-15 -3.180549999999999587e-15 -1.000000000000000000e+01 -2.804090000000003327e-16 -1.590280000000000274e-15 -1.000000000000000000e+01 -7.951390000000007115e-16 3.180549999999999587e-15 -3.180549999999999982e-15 1.998179999999999978e+01 8.718970000000000331e-01 2.396399999999999864e+00 2.400000000000000000e+01 -3.180549999999999193e-15 4.770829999999999467e-15 2.000000000000000000e+01 6.361109999999999741e-15 1.113189999999999931e-14 -7.951390000000007115e-16 3.180549999999999587e-15 -3.180549999999999982e-15 2.000000000000000000e+01 -9.541660000000000512e-15 9.144089999999999852e-15 2.400000000000000000e+01 -1.590280000000001063e-15 1.590279999999999485e-15 2.000000000000000000e+01 -4.770830000000000256e-15 2.226389999999999955e-14 -7.951390000000007115e-16 3.180549999999999587e-15 -3.180549999999999982e-15 1.997479999999999833e+01 -1.025649999999999951e+00 -2.819380000000000219e+00 2.400000000000000000e+01 0.000000000000000000e+00 -6.361109999999999741e-15 2.000000000000000000e+01 -4.770830000000001045e-15 1.113189999999999773e-14 -7.951390000000007115e-16 3.180549999999999587e-15 -3.180549999999999982e-15 1.978150000000000119e+01 -3.009479999999999933e+00 -8.305149999999999366e+00 2.400000000000000000e+01 4.770830000000000256e-15 9.541660000000002090e-15 2.000000000000000000e+01 0.000000000000000000e+00 4.770830000000000256e-15 1.771290000000000120e+01 -2.132349999999999923e+01 -2.146399999999999864e+00 1.516740000000000421e+00 5.133319999999999084e+01 -1.392479999999999905e+02 2.491870000000000118e+01 9.201399999999999579e+00 -1.515290000000000070e+01 3.413909999999999911e+01 -1.049240000000000350e+01 4.250710000000000122e+01 -2.818400000000000105e+01 1.072940000000000005e+01 -1.915919999999999845e+01 -6.764290000000011945e-17 9.541660000000000512e-15 1.000000000000000000e+01 0.000000000000000000e+00 0.000000000000000000e+00 1.000000000000000000e+01 -3.180549999999999982e-15 6.361110000000000530e-15 0.000000000000000000e+00 -1.998179999999999978e+01 8.718970000000000331e-01 -2.396399999999999864e+00 -2.400000000000000000e+01 6.361109999999999741e-15 -5.168399999999999338e-15 -2.000000000000000000e+01 3.180549999999999193e-15 -1.272219999999999835e-14 -3.180549999999999982e-15 6.361110000000000530e-15 0.000000000000000000e+00 -2.000000000000000000e+01 3.180549999999999982e-15 3.180549999999999193e-15 -2.400000000000000000e+01 3.180549999999999982e-15 -8.348959999999998309e-15 -2.000000000000000000e+01 3.180549999999999982e-15 -7.156249999999999484e-15 -3.180549999999999982e-15 6.361110000000000530e-15 0.000000000000000000e+00 -1.997479999999999833e+01 -1.025649999999999951e+00 2.819380000000000219e+00 -2.400000000000000000e+01 6.361109999999999741e-15 -3.975689999999998936e-15 -2.000000000000000000e+01 -3.180549999999999982e-15 -1.192709999999999772e-14 -3.180549999999999982e-15 6.361110000000000530e-15 0.000000000000000000e+00 -1.978150000000000119e+01 -3.009479999999999933e+00 8.305149999999999366e+00 -2.400000000000000000e+01 -3.180550000000000376e-15 1.987850000000000145e-15 -2.000000000000000000e+01 1.590280000000000077e-15 -6.361109999999999741e-15
1.514235499999999774e+03 8.767459999999998388e+01 4.305540000000000589e+00 2.564079999999999870e+01 -1.624070000000000036e+01 -1.571109999999999616e+02 3.718070000000000874e+01 -4.902400000000000801e+01 4.826109999999999900e+01 -2.066930000000000156e+00 2.882559999999999789e+01 -3.394059999999999633e+00 5.741979999999999862e+00 -1.390119999999999800e+00 3.529639999999999844e+01 4.974520000000000408e+01 -3.732239999999999469e+01 3.451030000000000086e+01 -9.514329999999999288e+00 4.185229999999999961e+01 1.877820000000000178e+01 -1.271370000000000111e+01 -1.256020000000000181e+01 9.046139999999999404e+00 1.191319999999999935e+00 8.434710000000002594e+00 -3.072200000000000131e+01 -8.514210000000001222e-02 2.136179999999999968e+00 -8.061890000000001777e+00 1.765369999999998746e-03 3.431529999999999969e+00 -1.231410000000000160e+01 -9.202850000000000197e-01 -6.060419999999998586e-01 2.573690000000000033e+00 -5.407799999999999052e+00 -3.608400000000000052e+00 3.642319999999999425e+01 -1.463110000000000355e+01 1.654550000000000409e+00 2.595360000000000156e+01 3.916000000000000369e+00 -3.020599999999999952e+00 -5.208020000000001204e+00 5.998870000000000147e+01 -2.392660000000000053e+01 -1.058360000000000056e+01 6.353899999999998727e+01 -1.189010000000000034e+01 1.122679999999999865e+02 -2.121509999999999607e+01 -2.279569999999999652e+00 4.666109999999998870e+00 2.818400000000000105e+01 1.072940000000000005e+01 1.915919999999999845e+01 -5.608179999999998766e-16 -3.180549999999999982e-15 -1.000000000000000000e+01 4.631660000000000797e-15 7.951390000000000804e-15 -1.000000000000000000e+01 7.951389999999999226e-16 0.000000000000000000e+00 -3.578119999999999853e-15 1.998179999999999978e+01 8.718970000000000331e-01 2.396399999999999864e+00 2.400000000000000000e+01 0.000000000000000000e+00 0.000000000000000000e+00 2.000000000000000000e+01 -1.590280000000000274e-15 3.180549999999999193e-15 7.951389999999999226e-16 0.000000000000000000e+00 -3.578119999999999853e-15 2.000000000000000000e+01 6.361109999999999741e-15 2.385419999999999228e-15 2.400000000000000000e+01 -6.361109999999999741e-15 -6.361109999999999741e-15 2.000000000000000000e+01 4.770830000000000256e-15 1.590279999999999485e-15 7.951389999999999226e-16 0.000000000000000000e+00 -3.578119999999999853e-15 1.997479999999999833e+01 -1.025649999999999951e+00 -2.819380000000000219e+00 2.400000000000000000e+01 -1.590279999999999880e-15 6.361109999999999741e-15 2.000000000000000000e+01 -1.590280000000000274e-15 3.180549999999999982e-15 7.951389999999999226e-16 0.000000000000000000e+00 -3.578119999999999853e-15 1.978150000000000119e+01 -3.009479999999999933e+00 -8.305149999999999366e+00 2.400000000000000000e+01 -1.590279999999999485e-15 7.951389999999999226e-15 2.000000000000000000e+01 4.770830000000000256e-15 1.590280000000001063e-15 1.767989999999999995e+01 -2.112580000000000169e+01 -2.116360000000000241e+00 9.773279999999999745e-01 5.267999999999999972e+01 -1.384110000000000014e+02 2.452789999999999893e+01 1.005860000000000021e+01 -1.456499999999999773e+01 3.479659999999999798e+01 -1.070860000000000056e+01 4.032550000000000523e+01 -2.818400000000000105e+01 1.072940000000000005e+01 -1.915919999999999845e+01 6.033709999999999983e-15 -1.590280000000000116e-14 1.000000000000000000e+01 2.804090000000000172e-15 -1.590280000000000116e-14 1.000000000000000000e+01 3.180550000000000771e-15 -3.180549999999999587e-15 0.000000000000000000e+00 -1.998179999999999978e+01 8.718970000000000331e-01 -2.396399999999999864e+00 -2.400000000000000000e+01 3.180549999999999982e-15 -9.144089999999999852e-15 -2.000000000000000000e+01 0.000000000000000000e+00 -3.975689999999998936e-15 3.180550000000000771e-15 -3.180549999999999587e-15 0.000000000000000000e+00 -2.000000000000000000e+01 6.361109999999999741e-15 -4.770830000000000256e-15 -2.400000000000000000e+01 3.180550000000000376e-15 -7.951389999999999226e-15 -2.000000000000000000e+01 6.361110000000000530e-15 -3.180549999999999982e-15 3.180550000000000771e-15 -3.180549999999999587e-15 0.000000000000000000e+00 -1.997479999999999833e+01 -1.025649999999999951e+00 2.819380000000000219e+00 -2.400000000000000000e+01 -3.180549999999999193e-15 -2.782989999999999888e-15 -2.000000000000000000e+01 0.000000000000000000e+00 -9.541660000000000512e-15 3.180550000000000771e-15 -3.180549999999999587e-15 0.000000000000000000e+00 -1.978150000000000119e+01 -3.009479999999999933e+00 8.305149999999999366e+00 -2.400000000000000000e+01 4.770830000000000256e-15 -1.192709999999999929e-14 -2.000000000000000000e+01 3.180549999999999982e-15 -5.168399999999999338e-15
1.514282600000000002e+03 8.766740000000001487e+01 4.416949999999999932e+00 2.582390000000000185e+01 -1.622939999999999827e+01 -1.568199999999999932e+02 3.714669999999999561e+01 -4.926559999999999917e+01 4.822560000000000002e+01 -1.975769999999999804e+00 2.887150000000000460e+01 -3.490400000000000169e+00 5.806079999999999686e+00 -1.413689999999999891e+00 3.518280000000000030e+01 4.979820000000000135e+01 -3.775400000000000489e+01 3.465800000000000125e+01 -9.176339999999999719e+00 4.198559999999999093e+01 1.847009999999999863e+01 -1.266220000000000212e+01 -1.250339999999999918e+01 9.027300000000000324e+00 1.282980000000000009e+00 8.558930000000000149e+00 -3.047680000000000078e+01 -6.496109999999999385e-02 2.176010000000000666e+00 -7.994880000000000209e+00 3.513009999999999744e-02 3.499830000000000219e+00 -1.223239999999999839e+01 -9.211419999999999053e-01 -6.060339999999999616e-01 2.564220000000000166e+00 -5.375000000000000000e+00 -3.511169999999999458e+00 3.566660000000000252e+01 -1.468120000000000047e+01 1.411630000000000607e+00 2.626670000000000371e+01 3.795999999999999375e+00 -2.927709999999999813e+00 -5.272960000000001202e+00 6.030229999999999535e+01 -2.451409999999999911e+01 -1.064509999999999934e+01 6.416519999999999868e+01 -1.180609999999999893e+01 1.096089999999999947e+02 -2.172409999999999997e+01 -3.113920000000000243e+00 5.627799999999998803e+00 2.818400000000000105e+01 1.072940000000000005e+01 1.915919999999999845e+01 2.804090000000003327e-16 1.590280000000000274e-15 -1.000000000000000000e+01 2.804090000000003327e-16 1.590280000000001063e-15 -1.000000000000000000e+01 -1.590279999999999880e-15 -3.180549999999999982e-15 1.192710000000000403e-15 1.998179999999999978e+01 8.718970000000000331e-01 2.396399999999999864e+00 2.400000000000000000e+01 -6.361109999999999741e-15 -1.590279999999999485e-15 2.000000000000000000e+01 3.180549999999999982e-15 -6.361109999999999741e-15 -1.590279999999999880e-15 -3.180549999999999982e-15 1.192710000000000403e-15 2.000000000000000000e+01 0.000000000000000000e+00 1.033680000000000025e-14 2.400000000000000000e+01 -1.590279999999999485e-15 -7.951389999999999226e-15 2.000000000000000000e+01 0.000000000000000000e+00 -1.590279999999999485e-15 -1.590279999999999880e-15 -3.180549999999999982e-15 1.192710000000000403e-15 1.997479999999999833e+01 -1.025649999999999951e+00 -2.819380000000000219e+00 2.400000000000000000e+01 -4.770830000000000256e-15 -9.541660000000000512e-15 2.000000000000000000e+01 3.180549999999999982e-15 -3.180550000000000771e-15 -1.590279999999999880e-15 -3.180549999999999982e-15 1.192710000000000403e-15 1.978150000000000119e+01 -3.009479999999999933e+00 -8.305149999999999366e+00 2.400000000000000000e+01 -1.749310000000000020e-14 -6.361109999999996586e-15 2.000000000000000000e+01 -1.590280000000000274e-15 -1.272220000000000308e-14 1.761680000000000135e+01 -2.090439999999999543e+01 -2.123129999999999740e+00 3.592789999999990158e-01 5.398760000000000048e+01 -1.374079999999999870e+02 2.401440000000000197e+01 1.072749999999999915e+01 -1.383039999999999914e+01 3.548759999999998627e+01 -1.118299999999999983e+01 3.845819999999999794e+01 -2.818400000000000105e+01 1.072940000000000005e+01 -1.915919999999999845e+01 7.580870000000000455e-15 -6.361110000000001319e-15 1.000000000000000000e+01 1.547169999999998672e-15 9.541660000000000512e-15 1.000000000000000000e+01 6.361109999999999741e-15 0.000000000000000000e+00 3.180549999999999982e-15 -1.998179999999999978e+01 8.718970000000000331e-01 -2.396399999999999864e+00 -2.400000000000000000e+01 6.361109999999999741e-15 -7.951389999999999226e-16 -2.000000000000000000e+01 0.000000000000000000e+00 -8.746530000000000547e-15 6.361109999999999741e-15 0.000000000000000000e+00 3.180549999999999982e-15 -2.000000000000000000e+01 3.180549999999999193e-15 -3.180550000000000376e-15 -2.400000000000000000e+01 0.000000000000000000e+00 1.590279999999999485e-15 -2.000000000000000000e+01 6.361109999999999741e-15 3.975690000000000513e-15 6.361109999999999741e-15 0.000000000000000000e+00 3.180549999999999982e-15 -1.997479999999999833e+01 -1.025649999999999951e+00 2.819380000000000219e+00 -2.400000000000000000e+01 3.180550000000000376e-15 -2.385420000000001200e-15 -2.000000000000000000e+01 0.000000000000000000e+00 -6.361109999999999741e-15 6.361109999999999741e-15 0.000000000000000000e+00 3.180549999999999982e-15 -1.978150000000000119e+01 -3.009479999999999933e+00 8.305149999999999366e+00 -2.400000000000000000e+01 -1.590280000000000274e-15 -7.156249999999997906e-15 -2.000000000000000000e+01 -1.590279999999999880e-15 -3.975689999999998936e-15
